<svg width="92" height="42" viewBox="0 0 92 42" fill="none" xmlns="http://www.w3.org/2000/svg">
<rect x="1" width="20" height="20" fill="#FFE7CD"/>
<rect x="24" width="20" height="20" fill="#AFD37E"/>
<rect x="47" width="20" height="20" fill="#FFDD7D"/>
<rect x="70" width="20" height="20" fill="#BEE2FF"/>
<path d="M8.28125 37.4453V39H2.57031V37.4453H8.28125ZM3.11719 27.625V39H1.15625V27.625H3.11719ZM23.4859 39H21.0562L21.0719 37.4453H23.4859C24.1891 37.4453 24.7776 37.2917 25.2516 36.9844C25.7307 36.6771 26.0901 36.237 26.3297 35.6641C26.5745 35.0911 26.6969 34.4089 26.6969 33.6172V33C26.6969 32.3854 26.6266 31.8411 26.4859 31.3672C26.3505 30.8932 26.1474 30.4948 25.8766 30.1719C25.6109 29.849 25.2828 29.6042 24.8922 29.4375C24.5068 29.2708 24.0615 29.1875 23.5562 29.1875H21.0094V27.625H23.5562C24.3115 27.625 25.0016 27.7526 25.6266 28.0078C26.2516 28.2578 26.7906 28.6198 27.2437 29.0938C27.7021 29.5677 28.0536 30.1354 28.2984 30.7969C28.5432 31.4583 28.6656 32.1979 28.6656 33.0156V33.6172C28.6656 34.4349 28.5432 35.1745 28.2984 35.8359C28.0536 36.4974 27.7021 37.0651 27.2437 37.5391C26.7854 38.0078 26.2385 38.3698 25.6031 38.625C24.9729 38.875 24.2672 39 23.4859 39ZM22.1422 27.625V39H20.1812V27.625H22.1422ZM41.2797 37.4453V39H35.2406V37.4453H41.2797ZM35.7953 27.625V39H33.8344V27.625H35.7953ZM40.4906 32.375V33.9062H35.2406V32.375H40.4906ZM41.2406 27.625V29.1875H35.2406V27.625H41.2406ZM52.0656 36.0703C52.0656 35.8359 52.0292 35.6276 51.9562 35.4453C51.8885 35.263 51.7661 35.0964 51.5891 34.9453C51.412 34.7943 51.162 34.6484 50.8391 34.5078C50.5214 34.362 50.1151 34.2135 49.6203 34.0625C49.0786 33.8958 48.5786 33.7109 48.1203 33.5078C47.6672 33.2995 47.2714 33.0599 46.9328 32.7891C46.5943 32.513 46.3312 32.1979 46.1437 31.8438C45.9562 31.4844 45.8625 31.0703 45.8625 30.6016C45.8625 30.138 45.9589 29.7161 46.1516 29.3359C46.3495 28.9557 46.6281 28.6276 46.9875 28.3516C47.3521 28.0703 47.7818 27.8542 48.2766 27.7031C48.7714 27.5469 49.3182 27.4688 49.9172 27.4688C50.7609 27.4688 51.4875 27.625 52.0969 27.9375C52.7115 28.25 53.1828 28.6693 53.5109 29.1953C53.8443 29.7214 54.0109 30.3021 54.0109 30.9375H52.0656C52.0656 30.5625 51.9849 30.2318 51.8234 29.9453C51.6672 29.6536 51.4276 29.4245 51.1047 29.2578C50.787 29.0911 50.3833 29.0078 49.8937 29.0078C49.4302 29.0078 49.0448 29.0781 48.7375 29.2188C48.4302 29.3594 48.201 29.5495 48.05 29.7891C47.899 30.0286 47.8234 30.2995 47.8234 30.6016C47.8234 30.8151 47.8729 31.0104 47.9719 31.1875C48.0708 31.3594 48.2219 31.5208 48.425 31.6719C48.6281 31.8177 48.8833 31.9557 49.1906 32.0859C49.4979 32.2161 49.8599 32.3411 50.2766 32.4609C50.9068 32.6484 51.4562 32.8568 51.925 33.0859C52.3937 33.3099 52.7844 33.5651 53.0969 33.8516C53.4094 34.138 53.6437 34.4635 53.8 34.8281C53.9562 35.1875 54.0344 35.5964 54.0344 36.0547C54.0344 36.5339 53.938 36.9661 53.7453 37.3516C53.5526 37.7318 53.2766 38.0573 52.9172 38.3281C52.563 38.5938 52.1359 38.7995 51.6359 38.9453C51.1411 39.0859 50.5891 39.1562 49.9797 39.1562C49.4328 39.1562 48.8937 39.0833 48.3625 38.9375C47.8365 38.7917 47.3573 38.5703 46.925 38.2734C46.4927 37.9714 46.149 37.5964 45.8937 37.1484C45.6385 36.6953 45.5109 36.1667 45.5109 35.5625H47.4719C47.4719 35.9323 47.5344 36.2474 47.6594 36.5078C47.7896 36.7682 47.9693 36.9818 48.1984 37.1484C48.4276 37.3099 48.6932 37.4297 48.9953 37.5078C49.3026 37.5859 49.6307 37.625 49.9797 37.625C50.438 37.625 50.8208 37.5599 51.1281 37.4297C51.4406 37.2995 51.675 37.1172 51.8312 36.8828C51.9875 36.6484 52.0656 36.3776 52.0656 36.0703ZM61.0625 27.625V39H59.1016V27.625H61.0625ZM75.4344 33.1875V37.5312C75.2729 37.7448 75.0203 37.9792 74.6766 38.2344C74.338 38.4844 73.8875 38.7005 73.325 38.8828C72.7625 39.0651 72.062 39.1562 71.2234 39.1562C70.5099 39.1562 69.8562 39.0365 69.2625 38.7969C68.6687 38.5521 68.1557 38.1953 67.7234 37.7266C67.2964 37.2578 66.9656 36.6875 66.7312 36.0156C66.4969 35.3385 66.3797 34.5677 66.3797 33.7031V32.9141C66.3797 32.0547 66.4865 31.2891 66.7 30.6172C66.9187 29.9401 67.2312 29.3672 67.6375 28.8984C68.0437 28.4297 68.5333 28.0755 69.1062 27.8359C69.6844 27.5911 70.338 27.4688 71.0672 27.4688C71.9995 27.4688 72.7703 27.625 73.3797 27.9375C73.9943 28.2448 74.4682 28.6719 74.8016 29.2188C75.1349 29.7656 75.3458 30.3906 75.4344 31.0938H73.5125C73.45 30.6979 73.3276 30.3438 73.1453 30.0312C72.9682 29.7188 72.713 29.474 72.3797 29.2969C72.0516 29.1146 71.6245 29.0234 71.0984 29.0234C70.6453 29.0234 70.2469 29.1094 69.9031 29.2812C69.5594 29.4531 69.2729 29.7057 69.0437 30.0391C68.8198 30.3724 68.6505 30.7786 68.5359 31.2578C68.4214 31.737 68.3641 32.2839 68.3641 32.8984V33.7031C68.3641 34.3281 68.4292 34.8828 68.5594 35.3672C68.6948 35.8516 68.8875 36.2604 69.1375 36.5938C69.3927 36.9271 69.7026 37.1797 70.0672 37.3516C70.4318 37.5182 70.8432 37.6016 71.3016 37.6016C71.7495 37.6016 72.1167 37.5651 72.4031 37.4922C72.6896 37.4141 72.9161 37.3229 73.0828 37.2188C73.2547 37.1094 73.3875 37.0052 73.4812 36.9062V34.6484H71.1141V33.1875H75.4344ZM89.8297 27.625V39H87.8688L82.7672 30.8516V39H80.8063V27.625H82.7672L87.8844 35.7891V27.625H89.8297Z" fill="#242924"/>
<rect x="1" y="23" width="89" height="2" fill="#242924"/>
</svg>
